<mxfile host="app.diagrams.net" agent="Mozilla/5.0 (Macintosh; Intel Mac OS X 10_15_7) AppleWebKit/537.36 (KHTML, like Gecko) Chrome/140.0.0.0 Safari/537.36 Edg/140.0.0.0" version="28.2.5">
  <diagram name="第 1 页" id="Stp_GAkKENH6mRUrLYq-">
    <mxGraphModel dx="994" dy="565" grid="1" gridSize="10" guides="1" tooltips="1" connect="1" arrows="1" fold="1" page="1" pageScale="1" pageWidth="1169" pageHeight="827" math="0" shadow="0">
      <root>
        <mxCell id="0" />
        <mxCell id="1" parent="0" />
        <mxCell id="ai7Iy-wBU8iAL-XbwRZi-6" style="edgeStyle=orthogonalEdgeStyle;rounded=0;orthogonalLoop=1;jettySize=auto;html=1;exitX=1;exitY=0.5;exitDx=0;exitDy=0;entryX=0;entryY=0.5;entryDx=0;entryDy=0;" edge="1" parent="1" source="ai7Iy-wBU8iAL-XbwRZi-2" target="ai7Iy-wBU8iAL-XbwRZi-3">
          <mxGeometry relative="1" as="geometry" />
        </mxCell>
        <mxCell id="ai7Iy-wBU8iAL-XbwRZi-2" value="&lt;font style=&quot;font-size: 14px;&quot;&gt;Card 1 值为&lt;b&gt;1&lt;/b&gt;&amp;nbsp;&lt;br&gt;&lt;/font&gt;&lt;div&gt;&lt;span style=&quot;background-color: transparent; color: light-dark(rgb(0, 0, 0), rgb(255, 255, 255)); font-size: 14px;&quot;&gt;（标识Page1有引用年轻代对象）&lt;/span&gt;&lt;span style=&quot;background-color: transparent; color: light-dark(rgb(0, 0, 0), rgb(255, 255, 255)); font-size: 14px;&quot;&gt;1字节&amp;nbsp;&lt;/span&gt;&lt;span style=&quot;background-color: transparent; color: light-dark(rgb(0, 0, 0), rgb(255, 255, 255)); font-size: 14px;&quot;&gt;指向0x0000&lt;/span&gt;&lt;/div&gt;" style="rounded=1;whiteSpace=wrap;html=1;align=center;verticalAlign=middle;" vertex="1" parent="1">
          <mxGeometry x="320" y="100" width="180" height="60" as="geometry" />
        </mxCell>
        <mxCell id="ai7Iy-wBU8iAL-XbwRZi-3" value="&lt;font style=&quot;font-size: 16px;&quot;&gt;Page 1 0x0000&lt;/font&gt;&lt;div&gt;&lt;font style=&quot;font-size: 16px;&quot;&gt;512字节&lt;/font&gt;&lt;/div&gt;" style="rounded=1;whiteSpace=wrap;html=1;" vertex="1" parent="1">
          <mxGeometry x="690" y="100" width="180" height="60" as="geometry" />
        </mxCell>
        <mxCell id="ai7Iy-wBU8iAL-XbwRZi-4" value="&lt;font style=&quot;font-size: 16px;&quot;&gt;&lt;b&gt;Card Table&lt;/b&gt;&lt;/font&gt;&lt;div&gt;&lt;font style=&quot;font-size: 16px;&quot;&gt;&lt;b&gt;在年轻代&lt;/b&gt;&lt;/font&gt;&lt;/div&gt;" style="text;html=1;align=center;verticalAlign=middle;whiteSpace=wrap;rounded=0;" vertex="1" parent="1">
          <mxGeometry x="360" y="60" width="100" height="30" as="geometry" />
        </mxCell>
        <mxCell id="ai7Iy-wBU8iAL-XbwRZi-5" value="&lt;font style=&quot;font-size: 16px;&quot;&gt;&lt;b&gt;Card Page&lt;/b&gt;&lt;/font&gt;&lt;div&gt;&lt;span style=&quot;font-size: 16px;&quot;&gt;&lt;b&gt;在老年代&lt;/b&gt;&lt;/span&gt;&lt;/div&gt;" style="text;html=1;align=center;verticalAlign=middle;whiteSpace=wrap;rounded=0;" vertex="1" parent="1">
          <mxGeometry x="730" y="60" width="100" height="30" as="geometry" />
        </mxCell>
        <mxCell id="ai7Iy-wBU8iAL-XbwRZi-9" style="edgeStyle=orthogonalEdgeStyle;rounded=0;orthogonalLoop=1;jettySize=auto;html=1;exitX=1;exitY=0.5;exitDx=0;exitDy=0;" edge="1" parent="1" source="ai7Iy-wBU8iAL-XbwRZi-7" target="ai7Iy-wBU8iAL-XbwRZi-8">
          <mxGeometry relative="1" as="geometry" />
        </mxCell>
        <mxCell id="ai7Iy-wBU8iAL-XbwRZi-7" value="&lt;font style=&quot;font-size: 14px;&quot;&gt;Card 2 值为&lt;b&gt;0&lt;/b&gt;&lt;/font&gt;&lt;div&gt;&lt;span style=&quot;color: light-dark(rgb(0, 0, 0), rgb(255, 255, 255)); background-color: transparent; font-size: 14px;&quot;&gt;（标识Page2没有有引用年轻代对象）&lt;/span&gt;&lt;span style=&quot;color: light-dark(rgb(0, 0, 0), rgb(255, 255, 255)); background-color: transparent; font-size: 14px;&quot;&gt;1字节&amp;nbsp;&lt;/span&gt;&lt;/div&gt;" style="rounded=1;whiteSpace=wrap;html=1;" vertex="1" parent="1">
          <mxGeometry x="320" y="170" width="180" height="60" as="geometry" />
        </mxCell>
        <mxCell id="ai7Iy-wBU8iAL-XbwRZi-8" value="&lt;font style=&quot;font-size: 16px;&quot;&gt;Page 2 0x0200&lt;/font&gt;&lt;div&gt;&lt;font style=&quot;font-size: 16px;&quot;&gt;512字节&lt;/font&gt;&lt;/div&gt;" style="rounded=1;whiteSpace=wrap;html=1;" vertex="1" parent="1">
          <mxGeometry x="690" y="170" width="180" height="60" as="geometry" />
        </mxCell>
      </root>
    </mxGraphModel>
  </diagram>
</mxfile>
